# xmcd CD database file
# Copyright (C) 1993-1998 Ti Kan
# 
# Track frame offsets:
#     150
#     12987
#     23037
#     34962
#     45387
#     57987
#     69012
#     81387
#     92637
#     103362
#     115362
#     125412
#     133812
#     143562
#     152937
#     164787
# 
# Disc length: 2347 seconds
# 
# Revision: 1
# Processed by: cddbd v1.4b41PL1 Copyright (c) Steve Scherf et al.
# Submitted via: DiscPlay 4.0.4
# 
DISCID=df092910
DTITLE=Johnny Cash and The Tennessee Two - Original Golden Hits - Volume 1
DYEAR=1900
DGENRE=
TTITLE0=Folsom Prison Blues
TTITLE1=Hey Porter
TTITLE2=So Doggone Lonesome
TTITLE3=There You Go
TTITLE4=Next In Line
TTITLE5=Cry,Cry,Cry
TTITLE6=I Walk The Line
TTITLE7=Don't Make Me Go
TTITLE8=Train Of Love
TTITLE9=Home Of The Blues
TTITLE10=Get Rhythm
TTITLE11=Guess Things Happen That Way
TTITLE12=Just About Time
TTITLE13=Luther's Boogie
TTITLE14=Thanks A Lot
TTITLE15=Big River
EXTD=
EXTT0=
EXTT1=
EXTT2=
EXTT3=
EXTT4=
EXTT5=
EXTT6=
EXTT7=
EXTT8=
EXTT9=
EXTT10=
EXTT11=
EXTT12=
EXTT13=
EXTT14=
EXTT15=
PLAYORDER=
